<svg width="8" height="6" viewBox="0 0 8 6" fill="none" xmlns="http://www.w3.org/2000/svg">
<path d="M3 5.00012L2.29287 5.70721C2.48041 5.89475 2.73477 6.00012 2.99999 6.00012C3.26522 6.00012 3.51958 5.89476 3.70712 5.70722L3 5.00012ZM1.70713 2.29291C1.31662 1.90238 0.683451 1.90236 0.292915 2.29287C-0.0976214 2.68338 -0.0976407 3.31655 0.292872 3.70709L1.70713 2.29291ZM7.70712 1.7071C8.09764 1.31657 8.09763 0.683401 7.7071 0.292882C7.31657 -0.0976359 6.6834 -0.0976262 6.29288 0.292904L7.70712 1.7071ZM3.70713 4.29304L1.70713 2.29291L0.292872 3.70709L2.29287 5.70721L3.70713 4.29304ZM3.70712 5.70722L7.70712 1.7071L6.29288 0.292904L2.29288 4.29303L3.70712 5.70722Z" fill="#86B2FF"/>
</svg>
