<svg width="16" height="16" viewBox="0 0 16 16" fill="none" xmlns="http://www.w3.org/2000/svg">
<path d="M7 10.0001L6.29287 10.7072C6.48041 10.8948 6.73477 11.0001 6.99999 11.0001C7.26522 11.0001 7.51958 10.8948 7.70712 10.7072L7 10.0001ZM5.70713 7.29291C5.31662 6.90238 4.68345 6.90236 4.29291 7.29287C3.90238 7.68338 3.90236 8.31655 4.29287 8.70709L5.70713 7.29291ZM11.7071 6.7071C12.0976 6.31657 12.0976 5.6834 11.7071 5.29288C11.3166 4.90236 10.6834 4.90237 10.2929 5.2929L11.7071 6.7071ZM7.70713 9.29304L5.70713 7.29291L4.29287 8.70709L6.29287 10.7072L7.70713 9.29304ZM7.70712 10.7072L11.7071 6.7071L10.2929 5.2929L6.29288 9.29303L7.70712 10.7072Z" fill="#121212"/>
<rect x="1" y="1" width="14" height="14" rx="3" stroke="#121212" stroke-width="2"/>
</svg>
