<svg width="24" height="24" viewBox="0 0 24 24" fill="none" xmlns="http://www.w3.org/2000/svg">
<rect width="24" height="24" fill="white"/>
<path d="M17 17L16 21M17 17L13 16M17 17C15.5 18.5 14 19 12 19C10 19 8.50005 18.5 7.00003 17C5.5 15.5 5 14 5 12C5 11.0765 5.10662 10.2595 5.36909 9.5M7.00002 7L8 3M7.00002 7L11 8M7.00002 7C8.50002 5.5 10 5.00001 12 5C14 4.99999 15.5 5.5 17 7C18.5 8.5 19 10 19 12C19 12.9235 18.8934 13.7405 18.6309 14.5" stroke="#121212" stroke-width="1.5" stroke-linecap="round" stroke-linejoin="round"/>
</svg>
