<svg width="42" height="42" viewBox="0 0 42 42" fill="none" xmlns="http://www.w3.org/2000/svg">
<g filter="url(#filter0_ddii_751_864)">
<rect x="9" y="9" width="24" height="24" rx="4" fill="white"/>
<path d="M26 26L25 30M26 26L22 25M26 26C24.5 27.5 23 28 21 28C19 28 17.5001 27.5 16 26C14.5 24.5 14 23 14 21C14 20.0765 14.1066 19.2595 14.3691 18.5M16 16L17 12M16 16L20 17M16 16C17.5 14.5 19 14 21 14C23 14 24.5 14.5 26 16C27.5 17.5 28 19 28 21C28 21.9235 27.8934 22.7405 27.6309 23.5" stroke="url(#paint0_linear_751_864)" stroke-opacity="0.9" stroke-width="1.5" stroke-linecap="round" stroke-linejoin="round"/>
</g>
<defs>
<filter id="filter0_ddii_751_864" x="0" y="0" width="42" height="42" filterUnits="userSpaceOnUse" color-interpolation-filters="sRGB">
<feFlood flood-opacity="0" result="BackgroundImageFix"/>
<feColorMatrix in="SourceAlpha" type="matrix" values="0 0 0 0 0 0 0 0 0 0 0 0 0 0 0 0 0 0 127 0" result="hardAlpha"/>
<feOffset dx="-1" dy="-1"/>
<feGaussianBlur stdDeviation="4"/>
<feColorMatrix type="matrix" values="0 0 0 0 0.94902 0 0 0 0 0.94902 0 0 0 0 0.94902 0 0 0 0.2 0"/>
<feBlend mode="normal" in2="BackgroundImageFix" result="effect1_dropShadow_751_864"/>
<feColorMatrix in="SourceAlpha" type="matrix" values="0 0 0 0 0 0 0 0 0 0 0 0 0 0 0 0 0 0 127 0" result="hardAlpha"/>
<feOffset dx="1" dy="1"/>
<feGaussianBlur stdDeviation="4"/>
<feColorMatrix type="matrix" values="0 0 0 0 0.913725 0 0 0 0 0.937255 0 0 0 0 0.94902 0 0 0 0.5 0"/>
<feBlend mode="normal" in2="effect1_dropShadow_751_864" result="effect2_dropShadow_751_864"/>
<feBlend mode="normal" in="SourceGraphic" in2="effect2_dropShadow_751_864" result="shape"/>
<feColorMatrix in="SourceAlpha" type="matrix" values="0 0 0 0 0 0 0 0 0 0 0 0 0 0 0 0 0 0 127 0" result="hardAlpha"/>
<feOffset dx="4" dy="4"/>
<feGaussianBlur stdDeviation="4"/>
<feComposite in2="hardAlpha" operator="arithmetic" k2="-1" k3="1"/>
<feColorMatrix type="matrix" values="0 0 0 0 0.913725 0 0 0 0 0.937255 0 0 0 0 0.94902 0 0 0 0.2 0"/>
<feBlend mode="normal" in2="shape" result="effect3_innerShadow_751_864"/>
<feColorMatrix in="SourceAlpha" type="matrix" values="0 0 0 0 0 0 0 0 0 0 0 0 0 0 0 0 0 0 127 0" result="hardAlpha"/>
<feOffset dx="-4" dy="-4"/>
<feGaussianBlur stdDeviation="4"/>
<feComposite in2="hardAlpha" operator="arithmetic" k2="-1" k3="1"/>
<feColorMatrix type="matrix" values="0 0 0 0 0.94902 0 0 0 0 0.94902 0 0 0 0 0.94902 0 0 0 0.5 0"/>
<feBlend mode="normal" in2="effect3_innerShadow_751_864" result="effect4_innerShadow_751_864"/>
</filter>
<linearGradient id="paint0_linear_751_864" x1="23" y1="12" x2="23" y2="25.5" gradientUnits="userSpaceOnUse">
<stop stop-color="#86B2FF"/>
<stop offset="1" stop-color="#86B2FF" stop-opacity="0.8"/>
</linearGradient>
</defs>
</svg>
